<svg xmlns="http://www.w3.org/2000/svg" viewBox="0 0 958 815" role="img" aria-label="Aka Shoes mark">
  <path d="M 478 615 L 468 617 L 451 624 L 444 629 L 432 641 L 427 649 L 421 663 L 420 673 L 419 674 L 419 689 L 420 690 L 420 696 L 425 710 L 433 723 L 442 732 L 452 739 L 468 746 L 473 746 L 479 748 L 496 747 L 505 745 L 522 737 L 537 723 L 543 714 L 549 700 L 551 690 L 551 673 L 548 660 L 541 646 L 536 639 L 525 628 L 511 620 L 499 616 Z M 484 640 L 501 643 L 509 648 L 520 660 L 523 666 L 526 678 L 525 692 L 518 706 L 506 717 L 500 720 L 486 723 L 471 720 L 459 713 L 449 701 L 445 692 L 445 686 L 444 685 L 444 677 L 446 668 L 452 657 L 461 648 L 467 644 Z M 848 126 L 835 130 L 824 136 L 815 143 L 803 158 L 795 177 L 795 184 L 794 185 L 795 207 L 799 219 L 805 230 L 820 246 L 826 250 L 841 257 L 851 259 L 870 259 L 880 257 L 890 253 L 905 243 L 915 232 L 920 224 L 925 212 L 927 203 L 927 182 L 923 168 L 915 153 L 903 140 L 896 135 L 884 129 L 873 126 L 867 126 L 866 125 Z M 856 151 L 867 151 L 871 153 L 875 153 L 884 158 L 895 169 L 899 177 L 902 187 L 901 203 L 895 216 L 882 228 L 874 232 L 865 234 L 854 234 L 845 231 L 835 225 L 824 212 L 821 205 L 819 195 L 820 184 L 823 175 L 828 167 L 835 160 L 847 153 Z M 4 327 L 6 363 L 76 402 L 176 426 L 315 434 L 261 564 L 225 580 L 201 618 L 207 667 L 247 701 L 296 699 L 332 666 L 339 627 L 323 586 L 392 428 L 578 412 L 677 420 L 782 459 L 854 522 L 888 596 L 889 644 L 870 689 L 834 719 L 788 728 L 757 680 L 725 667 L 693 670 L 662 556 L 661 436 L 592 432 L 589 515 L 602 611 L 644 721 L 647 769 L 674 802 L 720 814 L 764 794 L 852 785 L 912 744 L 946 690 L 957 643 L 954 587 L 905 478 L 805 395 L 677 353 L 703 243 L 708 120 L 695 85 L 663 60 L 602 66 L 574 97 L 521 121 L 478 156 L 418 230 L 343 367 L 166 359 L 37 313 Z M 709 686 L 726 687 L 743 694 L 751 700 L 758 708 L 766 723 L 764 725 L 744 718 L 728 709 L 720 707 L 705 708 L 696 713 L 689 720 L 683 733 L 683 747 L 689 760 L 699 769 L 712 775 L 714 777 L 735 785 L 739 788 L 732 792 L 724 794 L 715 794 L 714 795 L 713 794 L 705 794 L 697 792 L 688 788 L 681 783 L 673 775 L 668 768 L 664 760 L 661 749 L 661 733 L 663 724 L 672 707 L 682 697 L 694 690 Z M 248 588 L 250 588 L 251 591 L 239 623 L 238 639 L 242 649 L 250 658 L 262 664 L 276 664 L 289 658 L 297 650 L 300 645 L 312 612 L 313 611 L 316 615 L 319 626 L 319 644 L 317 652 L 308 667 L 301 674 L 291 680 L 278 684 L 259 684 L 252 682 L 240 676 L 227 663 L 222 654 L 219 643 L 219 626 L 222 615 L 230 602 L 238 594 L 243 592 L 244 590 Z M 634 211 L 633 241 L 629 265 L 609 343 L 606 348 L 550 348 L 490 353 L 434 360 L 424 359 L 449 312 L 471 276 L 489 250 L 506 228 L 527 205 L 557 180 L 574 171 L 584 186 L 599 199 L 613 206 L 624 209 L 632 209 Z M 631 76 L 650 77 L 663 82 L 671 88 L 681 100 L 686 110 L 689 122 L 689 141 L 685 155 L 681 163 L 678 166 L 677 169 L 664 181 L 653 187 L 650 187 L 646 189 L 628 189 L 617 186 L 607 180 L 594 166 L 594 164 L 597 162 L 610 162 L 611 163 L 612 162 L 632 169 L 642 169 L 650 166 L 657 161 L 665 150 L 668 141 L 668 128 L 663 116 L 656 108 L 645 102 L 634 98 L 622 95 L 602 94 L 601 93 L 602 91 L 612 83 L 623 78 Z M 396 1 L 386 4 L 373 11 L 359 24 L 354 31 L 348 43 L 345 53 L 345 58 L 344 59 L 345 79 L 349 92 L 355 103 L 360 110 L 368 118 L 375 123 L 390 130 L 398 132 L 404 132 L 405 133 L 423 132 L 437 128 L 453 118 L 461 110 L 468 100 L 476 79 L 477 63 L 476 62 L 475 49 L 470 36 L 463 25 L 451 13 L 442 7 L 429 2 L 420 0 Z M 404 25 L 422 26 L 435 33 L 446 45 L 449 51 L 452 63 L 452 71 L 450 79 L 445 89 L 437 98 L 425 105 L 418 107 L 403 107 L 396 105 L 387 100 L 376 89 L 370 74 L 370 58 L 376 44 L 386 33 L 397 27 Z" fill="#000000" fill-rule="evenodd"/>
</svg>
